<svg id="Layer_2" data-name="Layer 2" xmlns="http://www.w3.org/2000/svg" viewBox="0 0 126.29 323.31"><defs><style>.cls-1{fill:#aa3b1d;}</style></defs><title>tower_2</title><path d="M912.14,485.39,897,465.69l-9.6-16.17-9.09-10.1-5.05-9.6s-3-11.11-5.56-16.17l-10.61-16.17s-6.57-8.59-8.59-13.13c0,0-3-12.12-6.57-19.2,0,0-5.05-15.16-6.06-20.71,0,0-3.54-13.13,0-19.7,0,0,6.57-11.62,7.07-16.17S851,288.37,851,288.37a64.75,64.75,0,0,0,4-11.62c1-5.05,3-19.2,3-19.2l3.54-11.11a147.12,147.12,0,0,0,4.55-19.7,72.16,72.16,0,0,0,4-12.12c1.52-6.57,2.47-9.09,3-13.13s2-10.1,2-10.1l1.52-8.59-6.57,11.11s-3,7.58-3.54,10.61c0,0-3,12.12-4,14.65l-2.53,6.06-3-4.55,2.53-37.89-.51-14.15s.51-6.57-.51-6.57-16.67,11.11-16.67,11.11-10.1,6.06-15.66,7.58c0,0,0,9.6-3,16.17,0,0-5.05,23.24-4.55,37.38,0,0-5.56-11.11-4-27.28l-.26-16.17-3.27-11.11v12.12s-2.53,21.22-3,24.75l2.53,17.18s-1,14.65,7.07,27.28c0,0,8.08,14.14,6.06,25.76s-3,29.3-5.56,32.84c0,0-10.1,13.64-12.63,19.7,0,0-4.55,13.13-6.06,20.21,0,0-1.52,18.19,0,26.77,0,0,3.2,24.75-.67,41.93l-13,43.45Z" transform="translate(-785.85 -162.08)"/><path class="cls-1" d="M839.5,283.43,840,277s3-7,3.3-.79v7.27Z" transform="translate(-785.85 -162.08)"/><path class="cls-1" d="M845.5,434.94V411.79s2.88-10,7.12-2.6c0,0,4.93,9.45,5.89,16l2.33,12.19.82,3.43s-15.62-1.37-15.21-1.37S845.5,434.94,845.5,434.94Z" transform="translate(-785.85 -162.08)"/><path class="cls-1" d="M808.67,354.67s3-10,3-10.5.5-5.17-1.5-3.5a12.09,12.09,0,0,0-3,5l-1.83,7Z" transform="translate(-785.85 -162.08)"/></svg>