<svg id="Layer_2" data-name="Layer 2" xmlns="http://www.w3.org/2000/svg" viewBox="0 0 172 371.19"><defs><style>.cls-1{fill:#aa3b0b;}</style></defs><title>tower_1</title><path d="M289,445.67s12-29.33,12.67-37.33c0,0,5.33-10.67,5.33-14.67,0,0,10.67-20.67,14.67-25.33,0,0,16.67-16,19.33-24a169.39,169.39,0,0,0,11.33-22S359,315.67,363,293c0,0,2.67-12.67,0-23.33,0,0-4.67-20-6.67-30,0,0-2.67-16.67-.67-25.33,0,0,1.7-12.67,8.52-23.33s4.15-13.33,3.48-19.33A107.62,107.62,0,0,1,361,156.33s-2-10.67-6-15.33-10-12-14.67-16-8-14.67-8-14.67l-3.46-14.67,8.8-4H343l2,9.33,15.33-3.33a32.31,32.31,0,0,1,16.67-6V78.33s8,0,13.33-2.67a46.06,46.06,0,0,1,20.67,0s6-.67,3.33,6.67c0,0-3.3,8,.68,10.67l18.65,16L449,99l8.67.67L461,119l-7.33,3.33s-2,3.33-8,4.67c0,0-9.33,4-17.33,4.67,0,0-16.67,6.67-17.33,13.33a47,47,0,0,1-1.33,18s-9.33,23.33-11.33,33.33c0,0-5.33,21.33-7.33,27.33,0,0,.67,12.67,8,18.67,0,0,12.67,14.67,17.33,30.67,0,0,5.33,24,1.33,36,0,0-5.33,14.67-5.33,23.33s-.67,25.33-2,36.67c0,0-3.33,27.33.67,38l15.33,38.67Z" transform="translate(-289 -74.48)"/><path class="cls-1" d="M309.51,400.5l5.86-15.9s3.52-5.86,5.28-7.62c0,0,7.62-6.87,7.62,5.07l-7,18.45S314.2,398.22,309.51,400.5Z" transform="translate(-289 -74.48)"/><path class="cls-1" d="M364,200.88l2.4-9.6s6.4-10.39,6.4,0l-2.8,9.6Z" transform="translate(-289 -74.48)"/><path class="cls-1" d="M404.24,299.86l3-16.44s.5-4,3-5,2.49,3,2.49,6.48-2.49,14.95-2.49,14.95Z" transform="translate(-289 -74.48)"/></svg>