<svg xmlns="http://www.w3.org/2000/svg" viewBox="0 0 67.73 48.99"><defs><style>.cls-1{fill:#9f390d;}</style></defs><title>Asset 48@4x-lnk</title><g id="Layer_2" data-name="Layer 2"><g id="start"><g id="dialogue"><path class="cls-1" d="M24,27.64c-.21.17-.51.67-.27.7l.7-.72Z"/><path class="cls-1" d="M24.12,30a3.63,3.63,0,0,0,1.61-1.6c-.76.63-.58.27-1.46,1-.24,0-.12-.48.12-.75-.21.16-.15-.37-.6.07-.22.79.05,1,.72.72A1.5,1.5,0,0,1,24.12,30Z"/><path class="cls-1" d="M39.66,44l0-.18A.24.24,0,0,0,39.66,44Z"/><path class="cls-1" d="M39.4,42.51a.21.21,0,0,0,.21-.14C39.51,42.39,39.42,42.42,39.4,42.51Z"/><path class="cls-1" d="M37.92,40.62a1,1,0,0,0,.08.12C38,40.63,38,40.56,37.92,40.62Z"/><path class="cls-1" d="M39.66,44l.06.46C40,44.19,39.74,44.13,39.66,44Z"/><path class="cls-1" d="M27.87,29.73a.61.61,0,0,0-.31.1l.21,0Z"/><path class="cls-1" d="M34.77,41l-.08-.06-.32.26Z"/><path class="cls-1" d="M31.26,38.42c.06.09.6-.56.86-.82-.26.24-.42.33-.52.32A4.2,4.2,0,0,0,31.26,38.42Z"/><path class="cls-1" d="M26.65,33.07l-.17,0Z"/><path class="cls-1" d="M37.06,43.09a1.76,1.76,0,0,0-.16.26A1.23,1.23,0,0,0,37.06,43.09Z"/><path class="cls-1" d="M23,31.85,23,31.72C23,31.8,23,31.86,23,31.85Z"/><path class="cls-1" d="M16.64,29.9l.05-.07-.14-.45Z"/><path class="cls-1" d="M35,37.9v0C35.1,37.89,35,37.88,35,37.9Z"/><path class="cls-1" d="M18.9,25.94a1.64,1.64,0,0,1-.53-.76,1.32,1.32,0,0,0-.64-.79c.13.14.25.44.45.75A2.88,2.88,0,0,0,18.9,25.94Z"/><path class="cls-1" d="M27.9,29.89a.6.6,0,0,1,.15.1C28,29.92,28,29.89,27.9,29.89Z"/><path class="cls-1" d="M17.74,24.4h0l-.1-.05Z"/><path class="cls-1" d="M27,33.7a1.68,1.68,0,0,0-.13.36A1.13,1.13,0,0,0,27,33.7Z"/><path class="cls-1" d="M32.12,38.27,32,38.09A.29.29,0,0,0,32.12,38.27Z"/><path class="cls-1" d="M23.4,32.71c0-.1,0-.22-.17-.2a.53.53,0,0,0,0,.11C23.31,32.55,23.39,32.54,23.4,32.71Z"/><path class="cls-1" d="M20.37,30.57c0,.06,0,.12,0,.18l.12,0Z"/><path class="cls-1" d="M33.36,26a4.21,4.21,0,0,1-.54-.56C33.18,25.92,32.8,26.39,33.36,26Z"/><path class="cls-1" d="M27.59,30.11c.14-.16.23-.22.31-.23l-.13,0A.84.84,0,0,0,27.59,30.11Z"/><path class="cls-1" d="M19.48,38.09l-.43-.45A1.39,1.39,0,0,0,19.48,38.09Z"/><path class="cls-1" d="M39.3,11.78l.09-.14C39.33,11.64,39.29,11.68,39.3,11.78Z"/><path class="cls-1" d="M17.5,36.7a1.46,1.46,0,0,0,.06-.67,1,1,0,0,0-.18.14Z"/><path class="cls-1" d="M32.81,25.43h0Z"/><path class="cls-1" d="M30.28,29.19c.54-.27-.28-1.08-.48-1.7.46-.61.68.56,1.17.94.24-.47,0-1.53.33-1.65.11.15.2.17.25.41,0-1,1.17-.72,1.06-2a1.06,1.06,0,0,1,.2.2A8,8,0,0,1,32,24.16c.21-.15,0-.85.5-.28-.15.06,0,.32,0,.55l.07-.41c.75.77-.13.5.26,1.16.28-.57.36-1.62.86-1.58.61.83-.63.78.31,1.28h-.74c1.25,1.12-.39.1.88,1.34.88-.18.53-.93,1.39-1.12-.14-.58-.5-.68-.64-1.26.45-1.48,2.16,1.68,2.16.06-.18-.69-.81-1.82.08-1.58l.45,1.08c.74-.34-.52-1.63.6-1.45.13.46-.32.66-.14.71,1,.46,0-.76.31-1l.64.8c.62-.61,1-1.74,1.66-2.42.13.28.17.63.53.77.7-1.09,2.15-1.33,3.44-1.49l-.15-1c.09-.05.38.22.39.42.55,0-.3-.47-.33-.88.17-.2.56.22.59.53.21-1.06.88-2.6,2.1-2.31l0,.31c.73-.08-.46-1.89.49-1.56v.19a5.29,5.29,0,0,0,1.34-.84L67.73,0,46.53,9.7A2.5,2.5,0,0,1,44,9.87c.3,1.25-1.46,0-.87,1.66-1.05-.52-1-.89-2.2-1-.3,0,0,1.19-.26,1.49l-.35-.86-.1,1.08-.65-.93-.23.35c.15,0,.42.28.5.54-.34.59-1.44-.13-1.62-.57l-.89,1.18c-.11-.36,0-.55.11-.83-.29,1.12-.46-.87-.72.16.15.17.15.53.21.71a1.13,1.13,0,0,0-1.54.22l-.13-.63c-.92.18-1.73,1-2.71,1.31.45.15.75,1.22.49,1.43l-.45-.88c0,.64.43.24.29,1.07-.41,0-.62-1-.52-1.33l-.33.48a5,5,0,0,1-.17-.81c0,.64-1.1-.66-1,.43l-.12-.27c-1,.34-1.32.81-2.11,1.13.26.8-.12.73-.14,1.46-.68-.05-1.55-.46-2.24-.16-.37.56.08.73,0,1.28-.28-.72-1-.42-.77-1.06a5.1,5.1,0,0,0-2,1.44c.21.26.39.35.4.62-.16.18-.55-.16-.63-.53l0-.09c-.89,1.49-3.48-1.27-4,.55l0-.09-.78,1.1c-.51,0,.12-.64-.36-1-.25.75-1.09.93-1.77,1a2.69,2.69,0,0,0-1.91.71,3.87,3.87,0,0,0-3.69,0,6.56,6.56,0,0,1-4,.66l.85.34c.28.47-1-.07-1.54-.06.67.26,1.21.19,1.35.45C6,22.39,3.39,22.7,0,23.09a18.66,18.66,0,0,0,2.45,3,6.74,6.74,0,0,0,3,.83c1.13.17,2,.29,1.64.85l-2-.25a16.45,16.45,0,0,1,4.4,2.68,12.62,12.62,0,0,0,3.83,2.39c-.31.05-.55.24-.78.07-.05.41.43.79,1,1s1,.19,1.23,0c.16.16.06.25,0,.39a1.13,1.13,0,0,0-.24.45c0,.55,1.25-.22,1,.46,0,.11-.22.13-.3.14.39-.15.8.69,1.12-.11.27.68,1.17.39,1.28,1.08.8-.57.61,1,1.45,0-.82,1.08.26,1.52.94,1.22-.34.26,0,.54-.41.92a.77.77,0,0,0,1.19-.36c-.23,1.81,2.09-.15,1.33,1.83a19.32,19.32,0,0,1,4,.75c-.75,1.12-1.19-.59-1.91.64,1.28.14,2.43-.49,3.23.37.16.31-.45.42-.65.56,1.27.1,1.83,1.25,3.09,1.1a.63.63,0,0,1-.37.21c.2.06.31.4.59-.15l-.25.05c.17-.93,1.61-1.24,1.86-1.64-1.15,1.38.65.87-.89,2.56a1,1,0,0,0,.63-.59c.11.2.05.44-.35.76.79.06.88-.65,1.44-.33-.14.26-.31.3-.54.58.57-.36,1.13-.72,1.5-.25-.11.14-.16.38-.31.3.88.37,2.12-.65,2.79.29-.83,1,.13.54-.3,1.57l.65-.06,0-.59c.43.23,1.16-.34,1.39.16l-.52.28.92.17-.3-.6c.68-.33.53-1.32,1-.77-.16.05.43.2.4.91h0c.36-.23.72-.48.95-.09-.05.37-.54,1.12-.58,1.36.58-.78,1.16.18,1.8-.64a2.42,2.42,0,0,0-.41.85l.46-.64c.12.31.11.43-.09.86.58.38.31-1.41.83-.54-.08,0-.09.15-.25.21.65.58,1.63.06,2.2.66-.15,1.14-.7,0-.77,1a3.89,3.89,0,0,0,1.09,0l11.51-1.6L46.59,45.1c-.82-.2-1.7-.32-2.11-.91l.06.22c-1.14,1.11-.06-1.09-.94-.85.17,0,.7-.56.56-.45-.36-.65-1.34-.62-2.46-.92l.36-.23c-.08-.54-.69-.85-.91-1.28-.36.23-.51,0-.78.57.43-2.67-2.79-.68-2.51-2.95.12.09.49-.06.41-.14l-1-.35c-.37.59-.16.41-.33,1a.94.94,0,0,1-1,.15c.65-.07.69-.87.78-1.3-.11.19-.31.33-.43.51.35-1.3-.94,1-1-.07l.26-.26c-.33,0-.83.2-1-.07.4-.71.46-.11.88-.62-.35-.22-1.58.69-1.38-.17.28-.07.48.09.75,0,.26-1,.07-.83-.07-1.14v0l-.29-.77,0,.31c-1.69,1.33-1.07-.35-2.46.31,1.33-.61.55-.53,1.14-1.21,0-.31,0-.7.19-.86-.71.38-.09-.8-1.11-.23.16-.25-.27-.24.24-.78-.48-.08-.23.47-.48.74-1.13.39-.52-1.91-2.11-1.39-1,0-1.71.66-2.61.61.07-.53.8-.73.8-.73-.08-.59-.38-.72-.89-.68a1.2,1.2,0,0,0,.37-.72c-.3-.12-.8.74-.88.14a6.26,6.26,0,0,1,.95-.76c-.46,0-1.08.22-1.54.21.22-.47.64-.49.95-.68a1.82,1.82,0,0,0-1.76.3l.06.4c-.15-.06.34-.61.52-.66.67-.3.27.54.11.79h-.33c-.78,1.55,1,.42,1.44.82l-.92.87,1.07-.5c-.1.33-.44.94-.77.93,0,.73.54-.15.41.6a.22.22,0,0,1-.14.17l.53-.07c-.22.17-.47.75-.55.46.12,1,1.45-.09,1.09.82l-.09,0c1,.23.62-.68,1.84-1.11l-1,2.1.63-.68c.06.09.17.26-.08.53.67-.28.19-.36.72-.7-.13.95,1.28.48.48,1.71.56-.45,0-.7.66-.78-.84,1.33.63.14.53,1-.6.56-.66,0-.76.81,1-.93.48.75.93.76.68-.85.9.13,1.61.22-.26.26.53,1.18.73,1.84l-.13.13c.77-.79,1.1-.27,1.58-.18a1.76,1.76,0,0,1-1,.75l.31.25a.88.88,0,0,1,.79-.22l-.59.58c.44.3,1.44-.08,1.63.78.52-.57.93-2,1.82-1.94-.24.34-.67.91-.93.92.08,0,.39-.13.38.09l-.67.36c0,.44.5-.35.65-.14-.38.46-.12.44-.45.79-.09,0,0-.33-.24-.21a1.35,1.35,0,0,1,0,1.17c.2-.28.51-.62.71-.54.44.31-.31.67-.27,1.1.36-.24.35.31.92-.37.12.1-.12.44-.23.66.46-.12,1.06.74,1.42-.18v-.09h.06c1.26-.09,1.12,1.6,2,1.89l-.19.22c.63.09,1,.62,1.74.39.12.1-.07.65-.35.88.45.1.71-.12.83.64-.65.12-.19.44-.57,0,.17.4.1.74.44.8l2.19-3.84a1.42,1.42,0,0,0-.46.26c.42-.66-.06-1-.37-.9l.17.63a1.14,1.14,0,0,1-.72-.27l.45-.9c-.56-1.47-2.51,1.29-2.52-.9-.52.55.35.67-.18,1.34-.41-.31-.34-1.82-.48-1.88-.4-.75-1.13,1.1-1.63.48-.06.36-.36,1.27-1,1.36-.41-.32.05-1.61.45-1.75.12,0,.13.15.07.25.2-.05.45-.11.43-.54l-.2.3c-.08-.43-.7-.66-.32-1.13-.47.16-.39.47-.21.75-.36-.71-.88-.42-1.31-1,0,.22-.09.64-.18.59-.66-.81-.67.43-1.32.29-.09-.65.69-1.1-.09-1-.18-.51.35-.88.62-1.07-.83.35-.76-.9-1-1.16l.4-.11a.58.58,0,0,1-.5-.08l-.18.71c-.1-.19-.24-.27-.09-.53-.38.33-.42,1.11-1.05,1.51,0-.43-.84,0-.47-.88.52.64.38-.87,1-.71-.16,0-.29,0-.39-.23A.27.27,0,0,1,35,37.9c-.22-1.09-.8.78-1.45.39.34-.42.34-1,.18-.93.26.16-.31.85-.75,1.07-.22-.6-.61,0-.81-.16l.16.31c-.35.41-.53.24-.91.21.18-.37.41-.09.4-.31-.8.62-.25-1.27-1-1,0-.43.49-.87.43-1.19-.86.29-.17-.94-1-.78-.22.7-.1.57-.84.93l1.13.1-1.1.55c.26.17.79-.05.89.15-.57.34-.45.2-.63.79.19-1.13-1.05.1-1.09-.78l.95-1.5c-.2-1.06-1.59.09-2.15-.81l.09.43c-.49.52-.55-.24-1-.17a2.36,2.36,0,0,0,.4-1.15c-.23.38-.56-.42-1.29.52l.08-.88c-.46-.7-1.67.9-2.18.31.55-.4.51-.94,1.18-1-.2-.14-.32-.36-.56,0,.09-.39-1,.27-.89-.32-.24.15-.62.64-.82.44a.83.83,0,0,1,.17-.24c-.17.24-.59.07-.76.75.43-2-1.85-1.13-1.46-2.82a7.41,7.41,0,0,1-1.63-.65c.13-.12.18-.24.22-.13-.21-.84-1.38,1.1-1.58.18.38-.91.55-.23.63-.63.55-.8.45-.8.23-.75s-.6.1-.22-.33l.14,0c.21-.26,0-.19-.34-.13s-.79.11-.86,0a2.87,2.87,0,0,0,.32-.13,5.14,5.14,0,0,1-3-.26A6,6,0,0,0,16,27.69c-.3-.09-1.66.31-2.36.05a5.26,5.26,0,0,1,2.08-.45l.3.17c.74-.12.68-.15.43-.19s-.69-.08-.6-.13h.78c-.49-.18-2.61-.3-2.93-.66l-.63,0c-1.26-.22-1-.25-.69-.25s.77,0-.26-.21l2.36.3L13.23,26l-.81-.25L12,25.59a1.11,1.11,0,0,1-.22-.1c-.17-.1-.28-.19-.28-.25.65.2,1.14.36,1.56.51.24.09.78.24,1.15.34l1.14.29a.92.92,0,0,0-.21-.12c-.1,0-.37-.14-.44-.18a5.67,5.67,0,0,0-.82-.26c.15.06.6.19.39.17h-.12l-.2-.05c-1.71-.44-2.16-.75-1.64-.86a10.21,10.21,0,0,0,3,.61,4.12,4.12,0,0,1,2.11.46c-.45-.31-.05-.33.34-.25s.82.24.92.14c-1.6-1.41.08-.07-1.31-1.59.11-.15.23-.15.32-.06a7.37,7.37,0,0,1,1.17.81c.36.45.08.4.32.76.29.06.49.67.79,1.09-.31-.59-.33-.88-.14-.68a5.16,5.16,0,0,0-.48-.74c0-.25.07-.3.15-.24s.14.25.31.4c.3.31.61.63.93,0l-.13.64c.37-.46,1.73-.49,1.76-2,.14.18.4.63.23.81,1.18-.13,2-2.25,3.13-1.66l.05.45c.17-.19.1-.92.5-.57,0,.18.05.45.16.45.06-.18.31-.92.66-.76l-.08.55c1.26.21,1.27-1.71,2.06-2.29A2,2,0,0,0,31,22.85L31,23c1.3-.27,1.76-1.76,2.73-2.65,1.19,1.1,2.61-.3,4,0a1.21,1.21,0,0,1-.17-1.18c.36.15.41-1.13.8,0h-.1c.62,1,1.06.54,1.5.4l-.49-1.51c1.95,1.72,2.61-1.91,4-.24.12-.47.46-.6.57-1.08l.3.79a3.79,3.79,0,0,0,2.07-.72l0,.64c.54-.16-.28-2.53.17-2.77l.63,1.11c.59-.26,1.37-.07,2-.32L45.36,9a1.22,1.22,0,0,0-.48,1c-.1-.16-.29-.47-.19-.61-.39.24-1.92.32-.77,1.64-.67-.92-.87.48-1,1.19l-.42-.73c.26,1.12.42,1.37.1,2-.18,0-.49-.47-.21-.41-.64-.08.15.86-.58.83l-.13-.56c-.44.23-.24.44-.11,1.11-.06.46-.89.37-1.38-.21.21.42.34,1.08,0,1.06a.78.78,0,0,1-.22-.52c-1,0-.45,1.5-1.39,1.14a1.14,1.14,0,0,0-.36-.36c.55-.35,1-.61,1-.54-.44-.63-.95-.44-1.21-1.56,0,.72.11,2.16-.52,2.15a1.48,1.48,0,0,1-.21-.18v-.1c-.14,0-.19.12-.2.29a.81.81,0,0,0-.48,0c-.41-.49-.69,0-.92.17.49.69.13.77.78,1.17-.07,0,0-.11.11-.24a.24.24,0,0,0,0-.13l0,.07c.13-.12.31-.25.51-.41.07.47.09.89-.41.66.19.52.38,1.07.45,1.33-1-.78-1.88-.92-2.36-1.48-.4.83-1.39,1.28-1,2.89-.08.29-.47-.24-.67-.41,0-.2.17-.26.11-.5-.16.59-1,.85-.56,1.84-.75-.12-.27-1-.84-.46l-.09-.34c-2.22-.71-.69,3.74-3.33,2.63a.63.63,0,0,1,.37.24c-2.17.09-3.09,2.79-5.53,2.21-.63-.05-.37.61-.44,1.24l-.49-.77-.07,1.19c-.44,1-2.17-1.45-2.53.27l.36.51c-.38,0-.94.78-1.15.1,0,.12.13.63-.13.39l-.19-.44c-.18.36-.35.73-.54,1.09-.78-.08-.58-1.79-1.54-1.53a2.6,2.6,0,0,0-.29,1.92c.15,0,.47.14.64.58l-.25.36c.41,1.34.61,2.79,1.8,3.39l.3-1,.43.56-.49.23c.51.49.49-.11.56-.54a1.4,1.4,0,0,0,.52.6l.1-1.47c.27.48.14,1.11.64,1.24,0-.69-.71-1-.42-1.59.51.48.63,1,.75.35a.87.87,0,0,1,.13.75c.13-.52.71-.49.57-1.23.6.61.89-.61,1.39.62,0-.33.09-1.18.33-1.34.17,1.66,1-.36,1.61,1.24-.25-1.46,1-1.19,1.29-2.2,0,.12,0,.36,0,.32.4-.06.69.26,1,.39-.48-1.07-.07-1.59-.12-2.38.94.79.38,1.36,1,2.26-.46-.84.3-1.22-.21-1.85.65.45.44.16,1.06.93-.64-1.33.18-.38,0-1.32.81.39.78,1.14,1.07.47C30.48,28.48,30.28,29.19,30.28,29.19Zm10.23-9.36h0l-.2.2Zm.92-.65a1.93,1.93,0,0,0-.42.25c-.2-.22-.33-.49-.23-.54C40.84,19.09,41.15,19.08,41.43,19.18Zm-5.24-3.5c.08-.19.22-.09.33,0a1.29,1.29,0,0,0-.2.25l0,.1A2.52,2.52,0,0,1,36.19,15.68Z"/><path class="cls-1" d="M36.55,16.77s0,.07,0,.09l.19.1-.1-.25Z"/><path class="cls-1" d="M39.63,43.76v0a.38.38,0,0,1,0-.12A1,1,0,0,1,39.63,43.76Z"/><polygon class="cls-1" points="40.28 10.94 40.36 11.14 40.38 10.93 40.28 10.94"/><path class="cls-1" d="M36.7,37.62a.5.5,0,0,0,.07-.22A.67.67,0,0,0,36.7,37.62Z"/><path class="cls-1" d="M34.72,35.82l-.11-.47A1.41,1.41,0,0,0,34.72,35.82Z"/><path class="cls-1" d="M33.36,34.23a3.1,3.1,0,0,0-.25.26h0Z"/><path class="cls-1" d="M29.44,43.24h-.09C29.1,43.28,29.25,43.29,29.44,43.24Z"/><path class="cls-1" d="M39.18,45.91a2.1,2.1,0,0,1-.45.24C38.87,46.28,39,46.35,39.18,45.91Z"/><path class="cls-1" d="M19.53,38.14h0l-.06,0Z"/><path class="cls-1" d="M38.32,46a.3.3,0,0,0,.41.2C38.62,46,38.5,45.89,38.32,46Z"/><path class="cls-1" d="M26.43,28.59l-.06-.09-.09.1Z"/><path class="cls-1" d="M26.28,28.61l-.15,0S26.22,28.67,26.28,28.61Z"/><path class="cls-1" d="M25.82,28.66l.31,0C26.07,28.57,26,28.49,25.82,28.66Z"/><path class="cls-1" d="M28.41,30.51l.21-.23A1.4,1.4,0,0,0,28.41,30.51Z"/><path class="cls-1" d="M29.12,30.93c-.12-.17,0-.82-.35-.83l-.16.18C29,30,28.67,31.23,29.12,30.93Z"/><path class="cls-1" d="M29.6,36l-.4-.61c-.1.33-.24.78-.54.65C28.77,37.35,29,35.36,29.6,36Z"/><path class="cls-1" d="M31,37.68c-.38-.1-.29.38-.41.51C30.95,38.09,31,38.07,31,37.68Z"/><path class="cls-1" d="M42.83,47.37l-.53.56C42.59,48,42.5,47.7,42.83,47.37Z"/><polygon class="cls-1" points="42.9 48.18 43.02 48.73 43.38 48.11 42.9 48.18"/><polygon class="cls-1" points="43.18 42.46 43.33 42.4 42.81 42.5 43.18 42.46"/><path class="cls-1" d="M21.34,30.36l-.48.82C21.11,31.15,21.76,30.31,21.34,30.36Z"/><path class="cls-1" d="M14.72,26.62c.84,0,1.35,0,.35-.13C15,26.55,14.43,26.55,14.72,26.62Z"/><polygon class="cls-1" points="40.28 19.08 40.18 19.46 40.48 19.06 40.28 19.08"/></g></g></g></svg>